<svg xmlns="http://www.w3.org/2000/svg" viewBox="0 0 129.82 164.61"><defs><style>.cls-1{fill:#933;}.cls-2{fill:#474546;}</style></defs><g id="Layer_2" data-name="Layer 2"><g id="Working"><path class="cls-1" d="M90.22,25.66c-6.55-.1-16.13.14-22,4l-5.07-4.34L22.94,64.67c-7,9.28-6.6,25.36,1,34.05a24.43,24.43,0,0,0,30.26,5.22L87,72.2A9,9,0,0,1,99.49,85.12L65.26,118.33l-.87.52a42.4,42.4,0,0,1-53.93-8.25C-3,95.33-3.55,69,9.19,53l.34-.43L63.29,0"/><path class="cls-2" d="M39.12,138.71c6.55.16,16.14,0,22-3.81l5,4.39,40.55-39c7.13-9.22,6.82-25.31-.75-34.06a24.41,24.41,0,0,0-30.21-5.48l-33,31.45a9,9,0,0,1-12.42-13L64.88,46.26l.88-.51a42.38,42.38,0,0,1,53.85,8.72c13.3,15.38,13.65,41.75.77,57.57l-.34.42L65.83,164.61"/></g></g></svg>